<svg width="104" height="30" viewBox="0 0 104 30" fill="none" xmlns="http://www.w3.org/2000/svg">
<path d="M0.928414 22.5254C9.10955 22.5253 17.2907 22.5252 25.4718 22.5251C25.248 22.3013 25.0242 22.0774 24.8003 21.8536C25.2279 25.7461 22.2015 26.2736 19.1947 26.4038C17.0554 26.4964 14.9007 26.4585 12.7599 26.4842C10.7368 26.5085 8.71366 26.5328 6.69055 26.557C3.64471 26.5936 2.11151 24.8398 1.60276 21.9114C1.45511 21.0615 0.1607 21.4218 0.307784 22.2684C0.6788 24.404 1.86959 26.984 4.12789 27.7778C5.3197 28.1967 6.96757 27.8967 8.20789 27.8818C10.231 27.8575 12.2541 27.8332 14.2772 27.8089C18.8336 27.7542 26.8892 28.6444 26.1433 21.8536C26.1036 21.4926 25.8678 21.1821 25.4718 21.1821C17.2907 21.1822 9.10955 21.1823 0.928413 21.1824C0.064292 21.1824 0.0628598 22.5254 0.928414 22.5254Z" fill="#FB5607"/>
<path d="M0.894722 20.4748C9.03074 20.4773 17.1668 20.4799 25.3028 20.4825C26.1669 20.4828 26.1683 19.1398 25.3028 19.1395C17.1668 19.137 9.03074 19.1344 0.894722 19.1318C0.0305883 19.1316 0.0291805 20.4745 0.894722 20.4748Z" fill="#FB5607"/>
<path d="M0.222829 15.9347C1.61365 17.1146 3.72822 18.8589 5.64276 18.1547C5.82487 18.0878 7.54506 16.7512 7.16861 16.9841C8.75399 16.0033 9.83111 16.8761 11.2974 17.5341C12.2472 17.9603 12.9233 18.4823 14.0447 18.2383C15.3534 17.9536 16.4166 16.3652 17.7224 16.4205C18.8069 16.4665 19.4368 17.8915 20.3924 18.234C22.5191 18.9961 23.7634 17.1376 25.416 16.1751C26.1625 15.7403 25.4873 14.5792 24.7382 15.0155C23.9125 15.4964 23.0741 16.6195 22.2072 16.8716C21.0845 17.1981 20.3079 16.1862 19.4996 15.685C17.9662 14.7342 17.3722 14.7039 15.911 15.6121C15.4242 15.9147 14.8168 16.4837 14.2685 16.6449C12.2868 17.2276 11.9611 16.1188 10.6595 15.4505C10.0682 15.1469 9.44521 14.9727 8.77881 15.001C7.76311 15.044 7.02237 15.5366 6.1953 16.0401C5.71588 16.332 5.04941 16.9577 4.48563 16.9714C3.50983 16.9951 1.78725 15.5066 1.17244 14.9851C0.517053 14.4291 -0.437429 15.3746 0.222829 15.9347Z" fill="#FB5607"/>
<path d="M0.962095 14.0102C9.0757 13.9784 17.1893 13.9465 25.3029 13.9147C26.1669 13.9113 26.1686 12.5684 25.3029 12.5718C17.1893 12.6036 9.0757 12.6354 0.962095 12.6672C0.0981324 12.6706 0.0964087 14.0136 0.962095 14.0102Z" fill="#FB5607"/>
<path d="M1.13007 11.8936C5.41447 11.8938 9.69886 11.894 13.9833 11.8942C16.0398 11.8943 18.0963 11.8943 20.1528 11.8944C21.6787 11.8945 23.6516 12.1963 25.1464 11.8238C25.3535 11.7722 25.5793 11.5746 25.6154 11.3548C25.9727 9.17546 24.1515 6.22159 22.8402 4.61307C20.8393 2.1587 17.6557 2.15444 14.7152 2.12665C11.2205 2.09362 7.90575 1.41817 4.96722 3.55956C3.75859 4.44032 2.14523 5.48402 1.51229 6.90715C1.00117 8.05639 1.01744 9.60476 0.862915 10.8231C0.75446 11.6782 2.09841 11.6703 2.20586 10.8231C2.31561 9.95781 2.30522 8.92038 2.56605 8.0858C3.04194 6.56311 4.54813 5.49806 5.79402 4.63198C7.9825 3.11067 10.0083 3.42511 12.5708 3.44933C14.9923 3.47221 17.2452 3.3593 19.5873 4.03792C21.7171 4.65502 22.9516 6.76401 23.7165 8.76501C24.0268 9.57669 24.3992 10.0593 23.7517 10.5517C23.4513 10.7801 21.06 10.5515 20.6669 10.5515C18.6104 10.5514 16.5539 10.5513 14.4974 10.5512C10.0416 10.551 5.58584 10.5508 1.13007 10.5506C0.26595 10.5506 0.264522 11.8935 1.13007 11.8936Z" fill="#FB5607"/>
<path d="M35.6719 24V22.032H40.7119C41.6719 22.032 42.4239 21.752 42.9679 21.192C43.5119 20.616 43.7839 19.928 43.7839 19.128C43.7839 18.584 43.6639 18.096 43.4239 17.664C43.1839 17.216 42.8319 16.864 42.3679 16.608C41.9199 16.352 41.3919 16.224 40.7839 16.224H35.6719V14.256H40.4479C41.2479 14.256 41.8799 14.048 42.3439 13.632C42.8239 13.2 43.0639 12.584 43.0639 11.784C43.0639 10.984 42.8159 10.376 42.3199 9.96C41.8239 9.528 41.1679 9.312 40.3519 9.312H35.6719V7.344H40.3999C41.4879 7.344 42.3919 7.544 43.1119 7.944C43.8479 8.328 44.3999 8.84 44.7679 9.48C45.1519 10.12 45.3439 10.824 45.3439 11.592C45.3439 12.488 45.0959 13.272 44.5999 13.944C44.1199 14.616 43.4079 15.144 42.4639 15.528L42.6559 14.808C43.7279 15.192 44.5599 15.776 45.1519 16.56C45.7599 17.328 46.0639 18.24 46.0639 19.296C46.0639 20.176 45.8479 20.968 45.4159 21.672C44.9839 22.376 44.3599 22.944 43.5439 23.376C42.7439 23.792 41.7599 24 40.5919 24H35.6719ZM34.1599 24V7.344H36.4159V24H34.1599ZM53.313 24.24C52.385 24.24 51.545 24.032 50.793 23.616C50.057 23.184 49.481 22.592 49.065 21.84C48.649 21.088 48.441 20.216 48.441 19.224V12.6H50.601V19.128C50.601 19.752 50.705 20.296 50.913 20.76C51.137 21.208 51.457 21.552 51.873 21.792C52.289 22.032 52.777 22.152 53.337 22.152C54.185 22.152 54.849 21.888 55.329 21.36C55.809 20.816 56.049 20.072 56.049 19.128V12.6H58.209V19.224C58.209 20.216 58.001 21.088 57.585 21.84C57.169 22.592 56.593 23.184 55.857 23.616C55.137 24.032 54.289 24.24 53.313 24.24ZM62.736 24V11.352C62.736 10.472 62.92 9.704 63.288 9.048C63.672 8.376 64.2 7.848 64.872 7.464C65.544 7.064 66.32 6.864 67.2 6.864C68.096 6.864 68.832 7.056 69.408 7.44C69.984 7.824 70.408 8.352 70.68 9.024C70.968 9.68 71.112 10.432 71.112 11.28L69.528 11.256C69.512 10.52 69.312 9.936 68.928 9.504C68.544 9.056 67.968 8.832 67.2 8.832C66.448 8.832 65.872 9.056 65.472 9.504C65.088 9.936 64.896 10.536 64.896 11.304V24H62.736ZM59.928 14.568V12.6H75.312V14.568H59.928ZM69.528 24V10.896C69.528 10.048 69.712 9.312 70.08 8.688C70.448 8.048 70.952 7.544 71.592 7.176C72.248 6.808 73.008 6.624 73.872 6.624C74.528 6.624 75.096 6.736 75.576 6.96C76.056 7.184 76.496 7.512 76.896 7.944L75.48 9.336C75.272 9.112 75.04 8.944 74.784 8.832C74.528 8.704 74.216 8.64 73.848 8.64C73.16 8.64 72.624 8.84 72.24 9.24C71.872 9.64 71.688 10.192 71.688 10.896V24H69.528ZM82.0871 24.24C80.9511 24.24 79.9271 23.984 79.0151 23.472C78.1031 22.944 77.3831 22.232 76.8551 21.336C76.3271 20.44 76.0631 19.424 76.0631 18.288C76.0631 17.168 76.3191 16.16 76.8311 15.264C77.3591 14.368 78.0631 13.664 78.9431 13.152C79.8391 12.624 80.8391 12.36 81.9431 12.36C82.9991 12.36 83.9271 12.6 84.7271 13.08C85.5431 13.56 86.1751 14.224 86.6231 15.072C87.0871 15.92 87.3191 16.88 87.3191 17.952C87.3191 18.112 87.3111 18.288 87.2951 18.48C87.2791 18.656 87.2471 18.864 87.1991 19.104H77.5751V17.304H86.0471L85.2551 18C85.2551 17.232 85.1191 16.584 84.8471 16.056C84.5751 15.512 84.1911 15.096 83.6951 14.808C83.1991 14.504 82.5991 14.352 81.8951 14.352C81.1591 14.352 80.5111 14.512 79.9511 14.832C79.3911 15.152 78.9591 15.6 78.6551 16.176C78.3511 16.752 78.1991 17.432 78.1991 18.216C78.1991 19.016 78.3591 19.72 78.6791 20.328C78.9991 20.92 79.4551 21.384 80.0471 21.72C80.6391 22.04 81.3191 22.2 82.0871 22.2C82.7271 22.2 83.3111 22.088 83.8391 21.864C84.3831 21.64 84.8471 21.304 85.2311 20.856L86.6231 22.272C86.0791 22.912 85.4071 23.4 84.6071 23.736C83.8231 24.072 82.9831 24.24 82.0871 24.24ZM91.0748 24V7.824H93.2348V24H91.0748ZM88.2668 14.568V12.6H96.0428V14.568H88.2668Z" fill="black"/>
<path d="M99.2344 24.24C98.7864 24.24 98.4104 24.088 98.1064 23.784C97.8184 23.464 97.6744 23.088 97.6744 22.656C97.6744 22.208 97.8184 21.84 98.1064 21.552C98.4104 21.248 98.7864 21.096 99.2344 21.096C99.6824 21.096 100.05 21.248 100.338 21.552C100.642 21.84 100.794 22.208 100.794 22.656C100.794 23.088 100.642 23.464 100.338 23.784C100.05 24.088 99.6824 24.24 99.2344 24.24Z" fill="#FB5607"/>
</svg>
