<svg width="27" height="26" viewBox="0 0 27 26" fill="none" xmlns="http://www.w3.org/2000/svg">
<path d="M0.928414 20.5254C9.10955 20.5253 17.2907 20.5252 25.4718 20.5251C25.248 20.3013 25.0242 20.0774 24.8003 19.8536C25.2279 23.7461 22.2015 24.2736 19.1947 24.4038C17.0554 24.4964 14.9007 24.4585 12.7599 24.4842C10.7368 24.5085 8.71366 24.5328 6.69055 24.557C3.64471 24.5936 2.11151 22.8398 1.60276 19.9114C1.45511 19.0615 0.1607 19.4218 0.307784 20.2684C0.6788 22.404 1.86959 24.984 4.12789 25.7778C5.3197 26.1967 6.96757 25.8967 8.20789 25.8818C10.231 25.8575 12.2541 25.8332 14.2772 25.8089C18.8336 25.7542 26.8892 26.6444 26.1433 19.8536C26.1036 19.4926 25.8678 19.1821 25.4718 19.1821C17.2907 19.1822 9.10955 19.1823 0.928413 19.1824C0.064292 19.1824 0.0628598 20.5254 0.928414 20.5254Z" fill="#FB5607"/>
<path d="M0.894722 18.4748C9.03074 18.4773 17.1668 18.4799 25.3028 18.4825C26.1669 18.4828 26.1683 17.1398 25.3028 17.1395C17.1668 17.137 9.03074 17.1344 0.894722 17.1318C0.0305883 17.1316 0.0291805 18.4745 0.894722 18.4748Z" fill="#FB5607"/>
<path d="M0.222829 13.9347C1.61365 15.1146 3.72822 16.8589 5.64276 16.1547C5.82487 16.0878 7.54506 14.7512 7.16861 14.9841C8.75399 14.0033 9.83111 14.8761 11.2974 15.5341C12.2472 15.9603 12.9233 16.4823 14.0447 16.2383C15.3534 15.9536 16.4166 14.3652 17.7224 14.4205C18.8069 14.4665 19.4368 15.8915 20.3924 16.234C22.5191 16.9961 23.7634 15.1376 25.416 14.1751C26.1625 13.7403 25.4873 12.5792 24.7382 13.0155C23.9125 13.4964 23.0741 14.6195 22.2072 14.8716C21.0845 15.1981 20.3079 14.1862 19.4996 13.685C17.9662 12.7342 17.3722 12.7039 15.911 13.6121C15.4242 13.9147 14.8168 14.4837 14.2685 14.6449C12.2868 15.2276 11.9611 14.1188 10.6595 13.4505C10.0682 13.1469 9.44521 12.9727 8.77881 13.001C7.76311 13.044 7.02237 13.5366 6.1953 14.0401C5.71588 14.332 5.04941 14.9577 4.48563 14.9714C3.50983 14.9951 1.78725 13.5066 1.17244 12.9851C0.517053 12.4291 -0.437429 13.3746 0.222829 13.9347Z" fill="#FB5607"/>
<path d="M0.962095 12.0102C9.0757 11.9784 17.1893 11.9465 25.3029 11.9147C26.1669 11.9113 26.1686 10.5684 25.3029 10.5718C17.1893 10.6036 9.0757 10.6354 0.962095 10.6672C0.0981324 10.6706 0.0964087 12.0136 0.962095 12.0102Z" fill="#FB5607"/>
<path d="M1.13007 9.89356C5.41447 9.89376 9.69886 9.89396 13.9833 9.89416C16.0398 9.89425 18.0963 9.89435 20.1528 9.89444C21.6787 9.89451 23.6516 10.1963 25.1464 9.82383C25.3535 9.77221 25.5793 9.57455 25.6154 9.35485C25.9727 7.17546 24.1515 4.22159 22.8402 2.61307C20.8393 0.158702 17.6557 0.15444 14.7152 0.126647C11.2205 0.0936167 7.90575 -0.581829 4.96722 1.55956C3.75859 2.44032 2.14523 3.48402 1.51229 4.90715C1.00117 6.05639 1.01744 7.60476 0.862915 8.82307C0.75446 9.67816 2.09841 9.67026 2.20586 8.82307C2.31561 7.95781 2.30522 6.92038 2.56605 6.0858C3.04194 4.56311 4.54813 3.49806 5.79402 2.63198C7.9825 1.11067 10.0083 1.42511 12.5708 1.44933C14.9923 1.47221 17.2452 1.3593 19.5873 2.03792C21.7171 2.65502 22.9516 4.76401 23.7165 6.76501C24.0268 7.57669 24.3992 8.05927 23.7517 8.55166C23.4513 8.78005 21.06 8.55154 20.6669 8.55152C18.6104 8.55142 16.5539 8.55133 14.4974 8.55123C10.0416 8.55103 5.58584 8.55082 1.13007 8.55062C0.26595 8.55058 0.264522 9.89352 1.13007 9.89356Z" fill="#FB5607"/>
</svg>
